<svg width="537" height="380" viewBox="0 0 537 380" fill="none" xmlns="http://www.w3.org/2000/svg">
<path fill-rule="evenodd" clip-rule="evenodd" d="M278.232 209.689C277.384 208.768 289.478 168.818 256.144 130.504L323.965 62.95C337.703 76.619 396.426 142.628 370.323 232.26L278.232 209.689Z" fill="#E0E0E0"/>
<path fill-rule="evenodd" clip-rule="evenodd" d="M533.838 231.647C533.838 235.78 530.47 239.129 526.313 239.129C522.158 239.129 518.788 235.78 518.788 231.647C518.788 227.515 522.158 224.165 526.313 224.165C530.47 224.165 533.838 227.515 533.838 231.647ZM526.313 241C531.509 241 535.72 236.813 535.72 231.647C535.72 226.482 531.509 222.294 526.313 222.294C521.119 222.294 516.907 226.482 516.907 231.647C516.907 236.813 521.119 241 526.313 241ZM429.586 232.226H516.893V230.355H429.586H370.055V232.226H429.586Z" fill="#BFBFBF"/>
<path fill-rule="evenodd" clip-rule="evenodd" d="M533.849 320.091C533.849 324.223 530.5 327.573 526.367 327.573C522.235 327.573 518.885 324.223 518.885 320.091C518.885 315.958 522.235 312.608 526.367 312.608C530.5 312.608 533.849 315.958 533.849 320.091ZM526.367 329.443C531.533 329.443 535.72 325.256 535.72 320.091C535.72 314.925 531.533 310.738 526.367 310.738C521.202 310.738 517.014 314.925 517.014 320.091C517.014 325.256 521.202 329.443 526.367 329.443ZM321.978 320.935H517V319.065H321.978H189V320.935H321.978Z" fill="black"/>
<path fill-rule="evenodd" clip-rule="evenodd" d="M188 380C84.1705 380 0 295.83 0 192C0 88.1706 84.1705 4.00013 188 4.00012C238.296 4.00012 283.979 23.751 317.716 55.9199L249.699 123.938C233.391 109.175 211.76 100.182 188.028 100.182C137.265 100.182 96.1137 141.328 96.1137 192.083C96.1137 242.838 137.265 283.984 188.028 283.984C229.739 283.984 264.96 256.205 276.196 218.141L369.592 240.845C348.088 320.993 274.935 380 188 380Z" fill="black"/>
<path opacity="0.25" d="M188 289.007C241.53 289.007 284.924 245.613 284.924 192.083C284.924 138.553 241.53 95.1592 188 95.1592C134.47 95.1592 91.0762 138.553 91.0762 192.083C91.0762 245.613 134.47 289.007 188 289.007Z" stroke="black" stroke-width="10.4799"/>
<path d="M401.468 212.425V201.734H405.206C405.951 201.734 406.565 201.863 407.049 202.12C407.533 202.374 407.893 202.717 408.129 203.149C408.366 203.577 408.484 204.052 408.484 204.574C408.484 205.033 408.403 205.413 408.239 205.712C408.079 206.011 407.867 206.248 407.602 206.422C407.341 206.596 407.057 206.725 406.751 206.808V206.913C407.078 206.933 407.407 207.048 407.738 207.257C408.068 207.466 408.345 207.765 408.568 208.155C408.791 208.545 408.902 209.021 408.902 209.585C408.902 210.121 408.78 210.603 408.537 211.031C408.293 211.459 407.908 211.799 407.383 212.049C406.857 212.3 406.174 212.425 405.331 212.425H401.468ZM402.763 211.277H405.331C406.177 211.277 406.777 211.113 407.132 210.786C407.491 210.455 407.67 210.055 407.67 209.585C407.67 209.223 407.578 208.889 407.393 208.583C407.209 208.273 406.946 208.026 406.605 207.842C406.264 207.654 405.86 207.56 405.394 207.56H402.763V211.277ZM402.763 206.432H405.164C405.554 206.432 405.906 206.356 406.219 206.203C406.535 206.049 406.786 205.834 406.97 205.555C407.158 205.277 407.252 204.95 407.252 204.574C407.252 204.104 407.089 203.706 406.762 203.378C406.435 203.048 405.916 202.883 405.206 202.883H402.763V206.432ZM415.915 209.147V204.407H417.147V212.425H415.915V211.068H415.832C415.644 211.475 415.351 211.821 414.955 212.107C414.558 212.389 414.057 212.529 413.451 212.529C412.95 212.529 412.505 212.42 412.115 212.201C411.725 211.978 411.419 211.644 411.196 211.198C410.973 210.749 410.862 210.184 410.862 209.502V204.407H412.094V209.418C412.094 210.003 412.258 210.469 412.585 210.817C412.915 211.165 413.336 211.339 413.848 211.339C414.154 211.339 414.466 211.261 414.782 211.104C415.103 210.948 415.371 210.708 415.586 210.384C415.806 210.06 415.915 209.648 415.915 209.147ZM419.404 212.425V204.407H420.594V205.618H420.677C420.824 205.221 421.088 204.899 421.471 204.652C421.854 204.405 422.285 204.282 422.765 204.282C422.856 204.282 422.969 204.283 423.105 204.287C423.24 204.29 423.343 204.296 423.413 204.302V205.555C423.371 205.545 423.275 205.529 423.126 205.508C422.979 205.484 422.825 205.472 422.661 205.472C422.271 205.472 421.923 205.554 421.617 205.717C421.314 205.877 421.074 206.1 420.897 206.385C420.723 206.667 420.636 206.989 420.636 207.351V212.425H419.404ZM426.105 207.602V212.425H424.873V204.407H426.063V205.66H426.168C426.356 205.253 426.641 204.925 427.024 204.678C427.407 204.428 427.901 204.302 428.506 204.302C429.049 204.302 429.524 204.414 429.931 204.637C430.339 204.856 430.655 205.19 430.881 205.639C431.108 206.084 431.221 206.648 431.221 207.33V212.425H429.989V207.414C429.989 206.784 429.825 206.293 429.498 205.942C429.171 205.587 428.722 205.409 428.151 205.409C427.758 205.409 427.407 205.494 427.097 205.665C426.791 205.835 426.549 206.084 426.371 206.411C426.194 206.739 426.105 207.135 426.105 207.602ZM436.959 204.407V205.451H432.804V204.407H436.959ZM434.015 202.486H435.247V210.128C435.247 210.476 435.297 210.737 435.398 210.911C435.503 211.082 435.635 211.197 435.795 211.256C435.959 211.311 436.131 211.339 436.312 211.339C436.447 211.339 436.559 211.332 436.646 211.318C436.733 211.301 436.802 211.287 436.855 211.277L437.105 212.383C437.022 212.415 436.905 212.446 436.755 212.477C436.606 212.512 436.416 212.529 436.186 212.529C435.838 212.529 435.497 212.455 435.163 212.305C434.833 212.155 434.558 211.927 434.339 211.621C434.123 211.315 434.015 210.929 434.015 210.462V202.486ZM448.96 204.407C448.898 203.878 448.644 203.467 448.198 203.175C447.753 202.883 447.206 202.736 446.559 202.736C446.086 202.736 445.672 202.813 445.317 202.966C444.965 203.119 444.69 203.33 444.492 203.598C444.297 203.866 444.199 204.17 444.199 204.511C444.199 204.797 444.267 205.042 444.403 205.247C444.542 205.449 444.72 205.618 444.935 205.754C445.151 205.886 445.377 205.996 445.614 206.083C445.851 206.166 446.068 206.234 446.267 206.286L447.352 206.578C447.631 206.652 447.941 206.752 448.282 206.881C448.626 207.01 448.955 207.186 449.268 207.408C449.585 207.628 449.846 207.91 450.051 208.254C450.257 208.599 450.359 209.021 450.359 209.523C450.359 210.1 450.208 210.622 449.905 211.089C449.606 211.555 449.167 211.926 448.59 212.201C448.015 212.476 447.318 212.613 446.496 212.613C445.731 212.613 445.068 212.489 444.507 212.242C443.951 211.995 443.512 211.651 443.192 211.209C442.875 210.767 442.696 210.253 442.654 209.669H443.991C444.025 210.072 444.161 210.407 444.398 210.671C444.638 210.932 444.941 211.127 445.306 211.256C445.675 211.381 446.072 211.444 446.496 211.444C446.99 211.444 447.434 211.364 447.827 211.204C448.221 211.04 448.532 210.814 448.762 210.525C448.992 210.233 449.106 209.892 449.106 209.502C449.106 209.147 449.007 208.858 448.809 208.635C448.61 208.412 448.349 208.232 448.026 208.092C447.702 207.953 447.352 207.831 446.977 207.727L445.661 207.351C444.826 207.111 444.165 206.768 443.677 206.323C443.19 205.877 442.947 205.294 442.947 204.574C442.947 203.975 443.108 203.453 443.432 203.008C443.759 202.559 444.198 202.211 444.748 201.964C445.301 201.713 445.919 201.588 446.601 201.588C447.29 201.588 447.902 201.712 448.438 201.959C448.974 202.202 449.399 202.536 449.712 202.961C450.029 203.385 450.196 203.867 450.213 204.407H448.96ZM457.374 209.147V204.407H458.606V212.425H457.374V211.068H457.29C457.102 211.475 456.81 211.821 456.413 212.107C456.017 212.389 455.515 212.529 454.91 212.529C454.409 212.529 453.963 212.42 453.574 212.201C453.184 211.978 452.878 211.644 452.655 211.198C452.432 210.749 452.321 210.184 452.321 209.502V204.407H453.553V209.418C453.553 210.003 453.716 210.469 454.043 210.817C454.374 211.165 454.795 211.339 455.307 211.339C455.613 211.339 455.924 211.261 456.241 211.104C456.561 210.948 456.829 210.708 457.045 210.384C457.264 210.06 457.374 209.648 457.374 209.147ZM460.862 215.432V204.407H462.052V205.681H462.199C462.289 205.541 462.414 205.364 462.574 205.148C462.738 204.929 462.971 204.734 463.274 204.563C463.58 204.389 463.994 204.302 464.516 204.302C465.191 204.302 465.787 204.471 466.302 204.809C466.817 205.146 467.219 205.625 467.508 206.244C467.796 206.864 467.941 207.595 467.941 208.437C467.941 209.286 467.796 210.022 467.508 210.645C467.219 211.264 466.818 211.745 466.307 212.086C465.795 212.423 465.205 212.592 464.537 212.592C464.022 212.592 463.61 212.507 463.3 212.336C462.99 212.162 462.752 211.966 462.585 211.746C462.418 211.524 462.289 211.339 462.199 211.193H462.094V215.432H460.862ZM462.073 208.416C462.073 209.021 462.162 209.556 462.34 210.019C462.517 210.478 462.776 210.838 463.117 211.099C463.458 211.357 463.876 211.485 464.37 211.485C464.885 211.485 465.315 211.35 465.66 211.078C466.008 210.803 466.269 210.434 466.443 209.972C466.62 209.505 466.709 208.987 466.709 208.416C466.709 207.852 466.622 207.344 466.448 206.892C466.277 206.436 466.018 206.076 465.67 205.811C465.325 205.543 464.892 205.409 464.37 205.409C463.869 205.409 463.448 205.536 463.107 205.79C462.766 206.041 462.508 206.392 462.334 206.845C462.16 207.294 462.073 207.817 462.073 208.416ZM469.82 215.432V204.407H471.01V205.681H471.156C471.247 205.541 471.372 205.364 471.532 205.148C471.696 204.929 471.929 204.734 472.232 204.563C472.538 204.389 472.952 204.302 473.474 204.302C474.149 204.302 474.744 204.471 475.259 204.809C475.775 205.146 476.176 205.625 476.465 206.244C476.754 206.864 476.899 207.595 476.899 208.437C476.899 209.286 476.754 210.022 476.465 210.645C476.176 211.264 475.776 211.745 475.265 212.086C474.753 212.423 474.163 212.592 473.495 212.592C472.98 212.592 472.568 212.507 472.258 212.336C471.948 212.162 471.71 211.966 471.543 211.746C471.376 211.524 471.247 211.339 471.156 211.193H471.052V215.432H469.82ZM471.031 208.416C471.031 209.021 471.12 209.556 471.297 210.019C471.475 210.478 471.734 210.838 472.075 211.099C472.416 211.357 472.834 211.485 473.328 211.485C473.843 211.485 474.273 211.35 474.617 211.078C474.965 210.803 475.226 210.434 475.4 209.972C475.578 209.505 475.667 208.987 475.667 208.416C475.667 207.852 475.58 207.344 475.406 206.892C475.235 206.436 474.976 206.076 474.628 205.811C474.283 205.543 473.85 205.409 473.328 205.409C472.827 205.409 472.406 205.536 472.065 205.79C471.724 206.041 471.466 206.392 471.292 206.845C471.118 207.294 471.031 207.817 471.031 208.416ZM480.01 201.734V212.425H478.778V201.734H480.01ZM483.06 215.432C482.851 215.432 482.665 215.414 482.501 215.38C482.338 215.348 482.224 215.317 482.162 215.286L482.475 214.2C482.774 214.276 483.039 214.304 483.269 214.283C483.498 214.263 483.702 214.16 483.879 213.975C484.06 213.794 484.226 213.5 484.375 213.093L484.605 212.467L481.64 204.407H482.976L485.19 210.796H485.273L487.486 204.407H488.823L485.419 213.594C485.266 214.009 485.076 214.351 484.85 214.623C484.624 214.898 484.361 215.101 484.062 215.234C483.766 215.366 483.432 215.432 483.06 215.432Z" fill="#BFBFBF"/>
<path d="M403.517 192.028V188.261L412.319 180.111C413.068 179.387 413.696 178.735 414.203 178.155C414.718 177.576 415.108 177.008 415.374 176.453C415.64 175.889 415.772 175.282 415.772 174.63C415.772 173.905 415.607 173.281 415.277 172.758C414.947 172.227 414.497 171.82 413.925 171.539C413.354 171.249 412.706 171.104 411.981 171.104C411.225 171.104 410.565 171.257 410.001 171.563C409.438 171.869 409.003 172.307 408.697 172.879C408.391 173.45 408.238 174.13 408.238 174.919H403.276C403.276 173.301 403.642 171.897 404.375 170.706C405.107 169.514 406.133 168.593 407.454 167.941C408.774 167.289 410.295 166.963 412.017 166.963C413.788 166.963 415.33 167.277 416.642 167.904C417.962 168.524 418.988 169.385 419.721 170.488C420.453 171.591 420.819 172.855 420.819 174.279C420.819 175.213 420.634 176.135 420.264 177.044C419.902 177.954 419.254 178.964 418.32 180.075C417.386 181.178 416.07 182.502 414.372 184.047L410.762 187.585V187.754H421.145V192.028H403.517ZM424.028 187.681V183.564L434.351 167.301H437.901V173H435.8L429.292 183.299V183.492H443.962V187.681H424.028ZM435.897 192.028V186.426L435.993 184.603V167.301H440.895V192.028H435.897ZM460.98 187.392V186.088C460.98 185.098 461.189 184.188 461.608 183.359C462.034 182.522 462.65 181.854 463.455 181.355C464.268 180.848 465.258 180.594 466.425 180.594C467.609 180.594 468.603 180.844 469.408 181.343C470.221 181.842 470.832 182.51 471.243 183.347C471.661 184.176 471.871 185.09 471.871 186.088V187.392C471.871 188.382 471.661 189.295 471.243 190.132C470.824 190.961 470.208 191.625 469.395 192.125C468.582 192.632 467.592 192.885 466.425 192.885C465.242 192.885 464.248 192.632 463.443 192.125C462.638 191.625 462.026 190.961 461.608 190.132C461.189 189.295 460.98 188.382 460.98 187.392ZM464.493 186.088V187.392C464.493 187.963 464.63 188.502 464.904 189.009C465.186 189.517 465.693 189.77 466.425 189.77C467.158 189.77 467.657 189.521 467.922 189.022C468.196 188.523 468.333 187.979 468.333 187.392V186.088C468.333 185.5 468.204 184.953 467.947 184.446C467.689 183.938 467.182 183.685 466.425 183.685C465.701 183.685 465.198 183.938 464.916 184.446C464.634 184.953 464.493 185.5 464.493 186.088ZM448.29 173.241V171.937C448.29 170.939 448.504 170.025 448.93 169.196C449.357 168.359 449.973 167.691 450.778 167.192C451.591 166.693 452.573 166.443 453.724 166.443C454.915 166.443 455.913 166.693 456.718 167.192C457.523 167.691 458.135 168.359 458.553 169.196C458.972 170.025 459.181 170.939 459.181 171.937V173.241C459.181 174.239 458.968 175.153 458.541 175.982C458.123 176.811 457.507 177.475 456.694 177.974C455.889 178.465 454.899 178.71 453.724 178.71C452.548 178.71 451.554 178.461 450.741 177.962C449.936 177.455 449.325 176.791 448.906 175.97C448.496 175.141 448.29 174.231 448.29 173.241ZM451.828 171.937V173.241C451.828 173.829 451.965 174.372 452.239 174.871C452.52 175.37 453.015 175.62 453.724 175.62C454.464 175.62 454.967 175.37 455.233 174.871C455.506 174.372 455.643 173.829 455.643 173.241V171.937C455.643 171.349 455.515 170.802 455.257 170.295C454.999 169.788 454.488 169.534 453.724 169.534C453.007 169.534 452.512 169.792 452.239 170.307C451.965 170.822 451.828 171.366 451.828 171.937ZM449.884 192.028L466.884 167.301H470.047L453.047 192.028H449.884Z" fill="#BFBFBF"/>
<path d="M405.064 293.331H403.77C403.693 292.959 403.559 292.632 403.368 292.35C403.18 292.068 402.95 291.831 402.679 291.64C402.411 291.445 402.113 291.299 401.786 291.201C401.459 291.104 401.118 291.055 400.763 291.055C400.116 291.055 399.529 291.219 399.004 291.546C398.482 291.873 398.066 292.355 397.756 292.992C397.45 293.629 397.297 294.41 397.297 295.336C397.297 296.261 397.45 297.043 397.756 297.679C398.066 298.316 398.482 298.798 399.004 299.125C399.529 299.453 400.116 299.616 400.763 299.616C401.118 299.616 401.459 299.567 401.786 299.47C402.113 299.373 402.411 299.228 402.679 299.037C402.95 298.842 403.18 298.603 403.368 298.322C403.559 298.036 403.693 297.709 403.77 297.34H405.064C404.967 297.886 404.79 298.375 404.532 298.807C404.274 299.239 403.954 299.606 403.571 299.908C403.189 300.208 402.759 300.436 402.282 300.592C401.809 300.749 401.302 300.827 400.763 300.827C399.851 300.827 399.04 300.604 398.33 300.159C397.62 299.714 397.062 299.08 396.655 298.259C396.248 297.438 396.044 296.463 396.044 295.336C396.044 294.208 396.248 293.234 396.655 292.412C397.062 291.591 397.62 290.958 398.33 290.512C399.04 290.067 399.851 289.844 400.763 289.844C401.302 289.844 401.809 289.922 402.282 290.079C402.759 290.235 403.189 290.465 403.571 290.768C403.954 291.067 404.274 291.433 404.532 291.864C404.79 292.292 404.967 292.781 405.064 293.331ZM406.989 300.681V292.663H408.221V300.681H406.989ZM407.616 291.326C407.376 291.326 407.169 291.245 406.995 291.081C406.824 290.918 406.739 290.721 406.739 290.491C406.739 290.262 406.824 290.065 406.995 289.901C407.169 289.738 407.376 289.656 407.616 289.656C407.856 289.656 408.061 289.738 408.232 289.901C408.406 290.065 408.493 290.262 408.493 290.491C408.493 290.721 408.406 290.918 408.232 291.081C408.061 291.245 407.856 291.326 407.616 291.326ZM410.478 300.681V292.663H411.668V293.874H411.751C411.898 293.477 412.162 293.155 412.545 292.908C412.928 292.661 413.359 292.538 413.84 292.538C413.93 292.538 414.043 292.539 414.179 292.543C414.315 292.546 414.417 292.551 414.487 292.558V293.811C414.445 293.801 414.349 293.785 414.2 293.764C414.054 293.74 413.899 293.728 413.735 293.728C413.345 293.728 412.997 293.81 412.691 293.973C412.388 294.133 412.148 294.356 411.971 294.641C411.797 294.923 411.71 295.245 411.71 295.607V300.681H410.478ZM418.961 300.848C418.209 300.848 417.562 300.671 417.019 300.316C416.476 299.961 416.058 299.472 415.766 298.849C415.473 298.226 415.327 297.514 415.327 296.714C415.327 295.899 415.477 295.181 415.776 294.558C416.079 293.931 416.5 293.442 417.04 293.091C417.582 292.736 418.216 292.558 418.94 292.558C419.503 292.558 420.012 292.663 420.464 292.872C420.916 293.08 421.287 293.373 421.576 293.749C421.865 294.124 422.044 294.563 422.114 295.064H420.882C420.788 294.699 420.579 294.375 420.255 294.093C419.935 293.808 419.503 293.665 418.961 293.665C418.48 293.665 418.059 293.79 417.697 294.041C417.339 294.288 417.059 294.638 416.857 295.09C416.658 295.539 416.559 296.066 416.559 296.672C416.559 297.291 416.657 297.831 416.852 298.29C417.05 298.75 417.328 299.106 417.687 299.36C418.049 299.614 418.473 299.741 418.961 299.741C419.281 299.741 419.571 299.686 419.832 299.574C420.093 299.463 420.314 299.303 420.495 299.094C420.676 298.885 420.805 298.635 420.882 298.342H422.114C422.044 298.816 421.872 299.242 421.597 299.621C421.325 299.997 420.965 300.296 420.516 300.519C420.071 300.738 419.552 300.848 418.961 300.848ZM428.968 297.403V292.663H430.2V300.681H428.968V299.324H428.884C428.696 299.731 428.404 300.077 428.007 300.363C427.61 300.644 427.109 300.785 426.504 300.785C426.003 300.785 425.557 300.676 425.167 300.457C424.778 300.234 424.471 299.9 424.249 299.454C424.026 299.005 423.914 298.44 423.914 297.758V292.663H425.146V297.674C425.146 298.259 425.31 298.725 425.637 299.073C425.968 299.421 426.389 299.595 426.9 299.595C427.207 299.595 427.518 299.517 427.835 299.36C428.155 299.204 428.423 298.964 428.639 298.64C428.858 298.316 428.968 297.904 428.968 297.403ZM433.688 289.99V300.681H432.456V289.99H433.688ZM438.304 300.869C437.796 300.869 437.335 300.773 436.921 300.582C436.506 300.387 436.178 300.107 435.934 299.741C435.69 299.373 435.568 298.927 435.568 298.405C435.568 297.946 435.659 297.573 435.84 297.288C436.021 296.999 436.263 296.773 436.566 296.609C436.868 296.446 437.202 296.324 437.568 296.244C437.937 296.16 438.307 296.094 438.68 296.046C439.167 295.983 439.562 295.936 439.865 295.905C440.171 295.87 440.394 295.812 440.533 295.732C440.676 295.652 440.747 295.513 440.747 295.315V295.273C440.747 294.758 440.606 294.358 440.324 294.072C440.046 293.787 439.623 293.644 439.056 293.644C438.467 293.644 438.006 293.773 437.672 294.031C437.338 294.288 437.103 294.563 436.968 294.855L435.798 294.438C436.007 293.95 436.285 293.571 436.633 293.3C436.985 293.025 437.368 292.833 437.782 292.725C438.199 292.614 438.61 292.558 439.014 292.558C439.271 292.558 439.567 292.59 439.901 292.652C440.239 292.712 440.564 292.835 440.877 293.023C441.194 293.211 441.457 293.495 441.666 293.874C441.874 294.253 441.979 294.761 441.979 295.398V300.681H440.747V299.595H440.684C440.601 299.769 440.462 299.955 440.267 300.154C440.072 300.352 439.812 300.521 439.489 300.66C439.165 300.799 438.77 300.869 438.304 300.869ZM438.492 299.762C438.979 299.762 439.39 299.667 439.724 299.475C440.061 299.284 440.315 299.037 440.486 298.734C440.66 298.431 440.747 298.113 440.747 297.779V296.651C440.695 296.714 440.58 296.771 440.402 296.823C440.228 296.872 440.027 296.916 439.797 296.954C439.571 296.989 439.35 297.02 439.134 297.048C438.922 297.072 438.749 297.093 438.617 297.11C438.297 297.152 437.998 297.22 437.719 297.314C437.444 297.405 437.222 297.542 437.051 297.726C436.884 297.907 436.8 298.154 436.8 298.468C436.8 298.896 436.959 299.219 437.275 299.439C437.596 299.654 438.001 299.762 438.492 299.762ZM447.715 292.663V293.707H443.559V292.663H447.715ZM444.77 290.742H446.002V298.384C446.002 298.732 446.053 298.993 446.154 299.167C446.258 299.338 446.39 299.453 446.55 299.512C446.714 299.567 446.886 299.595 447.067 299.595C447.203 299.595 447.314 299.588 447.401 299.574C447.488 299.557 447.558 299.543 447.61 299.533L447.861 300.639C447.777 300.671 447.661 300.702 447.511 300.733C447.361 300.768 447.172 300.785 446.942 300.785C446.594 300.785 446.253 300.711 445.919 300.561C445.588 300.411 445.313 300.183 445.094 299.877C444.878 299.571 444.77 299.185 444.77 298.718V290.742ZM449.568 300.681V292.663H450.8V300.681H449.568ZM450.194 291.326C449.954 291.326 449.747 291.245 449.573 291.081C449.402 290.918 449.317 290.721 449.317 290.491C449.317 290.262 449.402 290.065 449.573 289.901C449.747 289.738 449.954 289.656 450.194 289.656C450.434 289.656 450.64 289.738 450.81 289.901C450.984 290.065 451.071 290.262 451.071 290.491C451.071 290.721 450.984 290.918 450.81 291.081C450.64 291.245 450.434 291.326 450.194 291.326ZM454.288 295.858V300.681H453.056V292.663H454.246V293.916H454.351C454.539 293.509 454.824 293.181 455.207 292.934C455.59 292.684 456.084 292.558 456.689 292.558C457.232 292.558 457.707 292.67 458.114 292.893C458.522 293.112 458.838 293.446 459.064 293.895C459.291 294.34 459.404 294.904 459.404 295.586V300.681H458.172V295.67C458.172 295.04 458.008 294.549 457.681 294.198C457.354 293.843 456.905 293.665 456.334 293.665C455.941 293.665 455.59 293.75 455.28 293.921C454.974 294.091 454.732 294.34 454.554 294.667C454.377 294.995 454.288 295.391 454.288 295.858ZM464.892 303.855C464.296 303.855 463.785 303.778 463.357 303.625C462.929 303.476 462.572 303.277 462.287 303.03C462.005 302.786 461.78 302.525 461.613 302.247L462.595 301.558C462.706 301.704 462.847 301.871 463.017 302.059C463.188 302.251 463.421 302.416 463.717 302.555C464.016 302.698 464.408 302.769 464.892 302.769C465.539 302.769 466.073 302.612 466.494 302.299C466.915 301.986 467.126 301.495 467.126 300.827V299.199H467.021C466.931 299.345 466.802 299.526 466.635 299.741C466.471 299.954 466.235 300.143 465.925 300.31C465.619 300.474 465.205 300.556 464.683 300.556C464.035 300.556 463.454 300.403 462.939 300.096C462.428 299.79 462.022 299.345 461.723 298.76C461.427 298.175 461.279 297.465 461.279 296.63C461.279 295.809 461.424 295.094 461.712 294.485C462.001 293.872 462.403 293.399 462.918 293.065C463.433 292.727 464.028 292.558 464.704 292.558C465.226 292.558 465.64 292.645 465.946 292.819C466.256 292.99 466.492 293.185 466.656 293.404C466.823 293.62 466.952 293.797 467.042 293.937H467.167V292.663H468.358V300.911C468.358 301.6 468.201 302.16 467.888 302.592C467.578 303.027 467.161 303.345 466.635 303.547C466.113 303.752 465.532 303.855 464.892 303.855ZM464.85 299.449C465.344 299.449 465.762 299.336 466.103 299.11C466.444 298.884 466.703 298.558 466.88 298.134C467.058 297.709 467.147 297.201 467.147 296.609C467.147 296.032 467.06 295.522 466.886 295.08C466.712 294.638 466.454 294.292 466.113 294.041C465.772 293.79 465.351 293.665 464.85 293.665C464.328 293.665 463.893 293.797 463.545 294.062C463.2 294.326 462.941 294.681 462.767 295.127C462.596 295.572 462.511 296.066 462.511 296.609C462.511 297.166 462.598 297.659 462.772 298.087C462.95 298.511 463.211 298.845 463.555 299.089C463.903 299.329 464.335 299.449 464.85 299.449ZM480.761 292.663C480.698 292.134 480.444 291.723 479.999 291.431C479.553 291.139 479.007 290.992 478.36 290.992C477.886 290.992 477.472 291.069 477.117 291.222C476.766 291.375 476.491 291.586 476.292 291.854C476.097 292.122 476 292.426 476 292.767C476 293.053 476.068 293.298 476.204 293.503C476.343 293.705 476.52 293.874 476.736 294.01C476.952 294.142 477.178 294.252 477.415 294.339C477.651 294.422 477.869 294.49 478.067 294.542L479.153 294.834C479.431 294.908 479.741 295.008 480.082 295.137C480.427 295.266 480.756 295.442 481.069 295.664C481.386 295.884 481.647 296.166 481.852 296.51C482.057 296.855 482.16 297.277 482.16 297.779C482.16 298.356 482.008 298.878 481.706 299.345C481.406 299.811 480.968 300.182 480.39 300.457C479.816 300.731 479.118 300.869 478.297 300.869C477.531 300.869 476.868 300.745 476.308 300.498C475.751 300.251 475.313 299.907 474.993 299.465C474.676 299.023 474.497 298.509 474.455 297.925H475.791C475.826 298.328 475.962 298.663 476.198 298.927C476.439 299.188 476.741 299.383 477.107 299.512C477.476 299.637 477.872 299.7 478.297 299.7C478.791 299.7 479.235 299.62 479.628 299.46C480.021 299.296 480.333 299.07 480.562 298.781C480.792 298.489 480.907 298.148 480.907 297.758C480.907 297.403 480.808 297.114 480.609 296.891C480.411 296.668 480.15 296.487 479.826 296.348C479.503 296.209 479.153 296.087 478.777 295.983L477.462 295.607C476.626 295.367 475.965 295.024 475.478 294.579C474.991 294.133 474.747 293.55 474.747 292.83C474.747 292.231 474.909 291.709 475.233 291.264C475.56 290.815 475.998 290.467 476.548 290.22C477.101 289.969 477.719 289.844 478.401 289.844C479.09 289.844 479.703 289.968 480.239 290.215C480.775 290.458 481.199 290.792 481.513 291.217C481.829 291.641 481.996 292.123 482.014 292.663H480.761ZM489.174 297.403V292.663H490.406V300.681H489.174V299.324H489.091C488.903 299.731 488.611 300.077 488.214 300.363C487.817 300.644 487.316 300.785 486.711 300.785C486.209 300.785 485.764 300.676 485.374 300.457C484.984 300.234 484.678 299.9 484.455 299.454C484.233 299.005 484.121 298.44 484.121 297.758V292.663H485.353V297.674C485.353 298.259 485.517 298.725 485.844 299.073C486.175 299.421 486.596 299.595 487.107 299.595C487.413 299.595 487.725 299.517 488.042 299.36C488.362 299.204 488.63 298.964 488.846 298.64C489.065 298.316 489.174 297.904 489.174 297.403ZM492.663 303.688V292.663H493.853V293.937H493.999C494.09 293.797 494.215 293.62 494.375 293.404C494.539 293.185 494.772 292.99 495.075 292.819C495.381 292.645 495.795 292.558 496.317 292.558C496.992 292.558 497.587 292.727 498.102 293.065C498.617 293.402 499.019 293.881 499.308 294.5C499.597 295.12 499.741 295.851 499.741 296.693C499.741 297.542 499.597 298.278 499.308 298.901C499.019 299.52 498.619 300.001 498.107 300.342C497.596 300.679 497.006 300.848 496.338 300.848C495.823 300.848 495.41 300.763 495.101 300.592C494.791 300.418 494.553 300.222 494.385 300.002C494.218 299.78 494.09 299.595 493.999 299.449H493.895V303.688H492.663ZM493.874 296.672C493.874 297.277 493.963 297.812 494.14 298.275C494.318 298.734 494.577 299.094 494.918 299.355C495.259 299.613 495.677 299.741 496.171 299.741C496.686 299.741 497.116 299.606 497.46 299.334C497.808 299.059 498.069 298.69 498.243 298.228C498.421 297.761 498.509 297.243 498.509 296.672C498.509 296.108 498.422 295.6 498.248 295.148C498.078 294.692 497.819 294.332 497.471 294.067C497.126 293.799 496.693 293.665 496.171 293.665C495.67 293.665 495.249 293.792 494.907 294.046C494.566 294.297 494.309 294.648 494.135 295.101C493.961 295.55 493.874 296.073 493.874 296.672ZM501.621 303.688V292.663H502.811V293.937H502.957C503.047 293.797 503.173 293.62 503.333 293.404C503.496 293.185 503.73 292.99 504.032 292.819C504.339 292.645 504.753 292.558 505.275 292.558C505.95 292.558 506.545 292.727 507.06 293.065C507.575 293.402 507.977 293.881 508.266 294.5C508.555 295.12 508.699 295.851 508.699 296.693C508.699 297.542 508.555 298.278 508.266 298.901C507.977 299.52 507.577 300.001 507.065 300.342C506.554 300.679 505.964 300.848 505.296 300.848C504.781 300.848 504.368 300.763 504.058 300.592C503.749 300.418 503.51 300.222 503.343 300.002C503.176 299.78 503.047 299.595 502.957 299.449H502.853V303.688H501.621ZM502.832 296.672C502.832 297.277 502.92 297.812 503.098 298.275C503.275 298.734 503.535 299.094 503.876 299.355C504.217 299.613 504.634 299.741 505.129 299.741C505.644 299.741 506.073 299.606 506.418 299.334C506.766 299.059 507.027 298.69 507.201 298.228C507.378 297.761 507.467 297.243 507.467 296.672C507.467 296.108 507.38 295.6 507.206 295.148C507.036 294.692 506.776 294.332 506.428 294.067C506.084 293.799 505.651 293.665 505.129 293.665C504.627 293.665 504.206 293.792 503.865 294.046C503.524 294.297 503.267 294.648 503.093 295.101C502.919 295.55 502.832 296.073 502.832 296.672ZM511.81 289.99V300.681H510.578V289.99H511.81ZM514.86 303.688C514.651 303.688 514.465 303.67 514.302 303.636C514.138 303.604 514.025 303.573 513.962 303.542L514.276 302.456C514.575 302.532 514.839 302.56 515.069 302.539C515.299 302.519 515.502 302.416 515.68 302.231C515.861 302.05 516.026 301.756 516.176 301.349L516.405 300.723L513.44 292.663H514.777L516.99 299.052H517.074L519.287 292.663H520.623L517.22 301.85C517.067 302.264 516.877 302.607 516.651 302.879C516.425 303.154 516.162 303.357 515.863 303.489C515.567 303.622 515.233 303.688 514.86 303.688Z" fill="black"/>
<path d="M398.931 280.452L409.182 260.168V259.999H397.241V255.725H414.591V260.059L404.328 280.452H398.931ZM427.133 280.79C425.861 280.782 424.634 280.569 423.45 280.15C422.275 279.732 421.221 279.051 420.287 278.11C419.353 277.168 418.613 275.92 418.066 274.367C417.526 272.813 417.257 270.906 417.257 268.644C417.265 266.567 417.502 264.712 417.969 263.078C418.444 261.436 419.12 260.043 419.997 258.9C420.883 257.757 421.941 256.888 423.173 256.292C424.404 255.689 425.785 255.387 427.314 255.387C428.964 255.387 430.421 255.709 431.685 256.353C432.949 256.988 433.963 257.854 434.727 258.948C435.5 260.043 435.967 261.271 436.128 262.631H430.972C430.771 261.77 430.349 261.094 429.705 260.603C429.061 260.112 428.264 259.866 427.314 259.866C425.704 259.866 424.481 260.566 423.644 261.967C422.815 263.368 422.392 265.271 422.376 267.678H422.545C422.915 266.945 423.414 266.322 424.042 265.806C424.678 265.283 425.398 264.885 426.203 264.611C427.016 264.329 427.874 264.189 428.775 264.189C430.24 264.189 431.544 264.535 432.687 265.227C433.83 265.911 434.731 266.853 435.392 268.052C436.052 269.252 436.382 270.624 436.382 272.169C436.382 273.844 435.991 275.333 435.21 276.637C434.438 277.941 433.355 278.963 431.963 279.703C430.578 280.436 428.968 280.798 427.133 280.79ZM427.109 276.685C427.914 276.685 428.634 276.492 429.27 276.105C429.906 275.719 430.405 275.196 430.767 274.536C431.129 273.876 431.311 273.135 431.311 272.314C431.311 271.493 431.129 270.757 430.767 270.105C430.413 269.453 429.922 268.934 429.294 268.547C428.666 268.161 427.95 267.968 427.145 267.968C426.541 267.968 425.982 268.08 425.467 268.306C424.96 268.531 424.513 268.845 424.127 269.247C423.748 269.65 423.45 270.117 423.233 270.648C423.016 271.171 422.907 271.731 422.907 272.326C422.907 273.123 423.088 273.852 423.45 274.512C423.821 275.172 424.32 275.699 424.948 276.093C425.584 276.488 426.304 276.685 427.109 276.685ZM453.623 275.816V274.512C453.623 273.522 453.832 272.612 454.251 271.783C454.677 270.946 455.293 270.278 456.098 269.779C456.911 269.272 457.901 269.018 459.068 269.018C460.252 269.018 461.246 269.268 462.051 269.767C462.864 270.266 463.475 270.934 463.886 271.771C464.304 272.6 464.514 273.514 464.514 274.512V275.816C464.514 276.806 464.304 277.719 463.886 278.556C463.467 279.386 462.852 280.05 462.039 280.549C461.226 281.056 460.236 281.309 459.068 281.309C457.885 281.309 456.891 281.056 456.086 280.549C455.281 280.05 454.669 279.386 454.251 278.556C453.832 277.719 453.623 276.806 453.623 275.816ZM457.137 274.512V275.816C457.137 276.387 457.273 276.926 457.547 277.434C457.829 277.941 458.336 278.194 459.068 278.194C459.801 278.194 460.3 277.945 460.566 277.446C460.839 276.947 460.976 276.403 460.976 275.816V274.512C460.976 273.924 460.847 273.377 460.59 272.87C460.332 272.363 459.825 272.109 459.068 272.109C458.344 272.109 457.841 272.363 457.559 272.87C457.277 273.377 457.137 273.924 457.137 274.512ZM440.933 261.665V260.361C440.933 259.363 441.147 258.449 441.573 257.62C442 256.783 442.616 256.115 443.421 255.616C444.234 255.117 445.216 254.868 446.367 254.868C447.558 254.868 448.556 255.117 449.361 255.616C450.166 256.115 450.778 256.783 451.196 257.62C451.615 258.449 451.824 259.363 451.824 260.361V261.665C451.824 262.663 451.611 263.577 451.184 264.406C450.766 265.235 450.15 265.899 449.337 266.398C448.532 266.889 447.542 267.135 446.367 267.135C445.191 267.135 444.197 266.885 443.384 266.386C442.579 265.879 441.968 265.215 441.549 264.394C441.139 263.565 440.933 262.655 440.933 261.665ZM444.471 260.361V261.665C444.471 262.253 444.608 262.796 444.882 263.295C445.163 263.794 445.658 264.044 446.367 264.044C447.107 264.044 447.61 263.794 447.876 263.295C448.15 262.796 448.286 262.253 448.286 261.665V260.361C448.286 259.774 448.158 259.226 447.9 258.719C447.642 258.212 447.131 257.958 446.367 257.958C445.65 257.958 445.155 258.216 444.882 258.731C444.608 259.246 444.471 259.79 444.471 260.361ZM442.527 280.452L459.527 255.725H462.691L445.691 280.452H442.527Z" fill="black"/>
</svg>
